<svg width="1652" height="99" viewBox="0 0 1652 99" fill="none" xmlns="http://www.w3.org/2000/svg">
<path fill-rule="evenodd" clip-rule="evenodd" d="M0 76.7778L11.0133 65.8889C23.4033 55 45.43 33.2222 68.8333 31.4074C92.2367 29.5926 114.263 47.7408 137.667 56.8148C161.07 65.8889 183.097 65.8889 206.5 53.1852C229.903 40.4815 251.93 15.0741 275.333 20.5185C298.737 25.963 320.763 62.2593 344.167 69.5185C367.57 76.7778 389.597 55 413 36.8519C436.403 18.7037 458.43 4.1852 481.833 6.00001C505.237 7.81483 527.263 25.963 550.667 42.2963C574.07 58.6296 596.097 73.1482 619.5 74.963C642.903 76.7778 664.93 65.8889 688.333 51.3704C711.737 36.8519 733.763 18.7037 757.167 22.3333C780.57 25.963 802.597 51.3704 826 49.5556C849.403 47.7408 871.43 18.7037 894.833 18.7037C918.237 18.7037 926.597 42.2963 950 56.8148C973.403 71.3333 974.097 42.2963 997.5 31.4074C1020.9 20.5185 1077.93 69.5185 1101.33 56.8148C1124.74 44.1111 1146.76 4.1852 1170.17 2.37038C1193.57 0.555569 1189.6 51.3704 1213 53.1852C1236.4 55 1284.43 7.81483 1307.83 22.3333C1331.24 36.8519 1353.26 62.2593 1376.67 69.5185C1400.07 76.7778 1422.1 65.8889 1445.5 51.3704C1468.9 36.8519 1490.93 18.7037 1514.33 25.963C1537.74 33.2222 1559.76 65.8889 1583.17 65.8889C1606.57 65.8889 1628.6 33.2222 1640.99 16.8889L1652 0.555569V98.5556H1640.99C1628.6 98.5556 1606.57 98.5556 1583.17 98.5556C1559.76 98.5556 1537.74 98.5556 1514.33 98.5556C1490.93 98.5556 1468.9 98.5556 1445.5 98.5556C1422.1 98.5556 1400.07 98.5556 1376.67 98.5556C1353.26 98.5556 1331.24 98.5556 1307.83 98.5556C1284.43 98.5556 1262.4 98.5556 1239 98.5556C1215.6 98.5556 1193.57 98.5556 1170.17 98.5556C1146.76 98.5556 1124.74 98.5556 1101.33 98.5556C1077.93 98.5556 1055.9 98.5556 1032.5 98.5556C1009.1 98.5556 987.07 98.5556 963.667 98.5556C940.263 98.5556 918.237 98.5556 894.833 98.5556C871.43 98.5556 849.403 98.5556 826 98.5556C802.597 98.5556 780.57 98.5556 757.167 98.5556C733.763 98.5556 711.737 98.5556 688.333 98.5556C664.93 98.5556 642.903 98.5556 619.5 98.5556C596.097 98.5556 574.07 98.5556 550.667 98.5556C527.263 98.5556 505.237 98.5556 481.833 98.5556C458.43 98.5556 436.403 98.5556 413 98.5556C389.597 98.5556 367.57 98.5556 344.167 98.5556C320.763 98.5556 298.737 98.5556 275.333 98.5556C251.93 98.5556 229.903 98.5556 206.5 98.5556C183.097 98.5556 161.07 98.5556 137.667 98.5556C114.263 98.5556 92.2367 98.5556 68.8333 98.5556C45.43 98.5556 23.4033 98.5556 11.0133 98.5556H0V76.7778Z" fill="#0055FF"/>
</svg>
