<?xml version="1.0" encoding="UTF-8"?>
<!DOCTYPE svg PUBLIC "-//W3C//DTD SVG 1.1//EN" "http://www.w3.org/Graphics/SVG/1.1/DTD/svg11.dtd">
<svg xmlns="http://www.w3.org/2000/svg" version="1.1" width="2048px" height="2048px" style="shape-rendering:geometricPrecision; text-rendering:geometricPrecision; image-rendering:optimizeQuality; fill-rule:evenodd; clip-rule:evenodd" xmlns:xlink="http://www.w3.org/1999/xlink">
<g><path style="opacity:0.999" fill="#dd0031" d="M 1023.5,244.5 C 1023.83,305.571 1023.5,366.571 1022.5,427.5C 864.514,783.618 705.848,1139.45 546.5,1495C 605.836,1495.83 665.169,1495.67 724.5,1494.5C 756.568,1415.29 788.235,1335.96 819.5,1256.5C 887.5,1256.5 955.5,1256.5 1023.5,1256.5C 1023.17,1465.67 1023.5,1674.67 1024.5,1883.5C 1024.44,1884.04 1024.11,1884.38 1023.5,1884.5C 808.167,1765.17 592.833,1645.83 377.5,1526.5C 338.027,1191.08 299.027,855.578 260.5,520C 260.833,518.833 261.167,517.667 261.5,516.5C 515.525,425.817 769.525,335.15 1023.5,244.5 Z"/></g>
<g><path style="opacity:1" fill="#c3002f" d="M 1023.5,244.5 C 1277.47,335.15 1531.47,425.817 1785.5,516.5C 1785.83,517.667 1786.17,518.833 1786.5,520C 1747.97,855.578 1708.97,1191.08 1669.5,1526.5C 1454.61,1645.78 1239.61,1764.78 1024.5,1883.5C 1023.5,1674.67 1023.17,1465.67 1023.5,1256.5C 1090.84,1256.17 1158.17,1256.5 1225.5,1257.5C 1257.37,1336.44 1289.04,1415.44 1320.5,1494.5C 1379.67,1495.83 1439,1495.83 1498.5,1494.5C 1498.38,1493.89 1498.04,1493.56 1497.5,1493.5C 1340.62,1139.4 1183.45,785.404 1026,431.5C 1025.5,429.456 1024.34,428.122 1022.5,427.5C 1023.5,366.571 1023.83,305.571 1023.5,244.5 Z"/></g>
<g><path style="opacity:1" fill="#fefefe" d="M 1022.5,427.5 C 1024.34,428.122 1025.5,429.456 1026,431.5C 1183.45,785.404 1340.62,1139.4 1497.5,1493.5C 1438.67,1494.5 1379.67,1494.83 1320.5,1494.5C 1289.04,1415.44 1257.37,1336.44 1225.5,1257.5C 1158.17,1256.5 1090.84,1256.17 1023.5,1256.5C 955.5,1256.5 887.5,1256.5 819.5,1256.5C 788.235,1335.96 756.568,1415.29 724.5,1494.5C 665.169,1495.67 605.836,1495.83 546.5,1495C 705.848,1139.45 864.514,783.618 1022.5,427.5 Z"/></g>
<g><path style="opacity:1" fill="#dd0131" d="M 1022.5,775.5 C 1023.5,886.332 1023.83,997.332 1023.5,1108.5C 977.162,1108.83 930.829,1108.5 884.5,1107.5C 930.515,996.808 976.515,886.141 1022.5,775.5 Z"/></g>
<g><path style="opacity:1" fill="#c3012f" d="M 1022.5,775.5 C 1022.56,774.957 1022.89,774.624 1023.5,774.5C 1070.03,885.409 1116.36,996.409 1162.5,1107.5C 1116.17,1108.5 1069.84,1108.83 1023.5,1108.5C 1023.83,997.332 1023.5,886.332 1022.5,775.5 Z"/></g>
<g><path style="opacity:1" fill="#f6dce2" d="M 1497.5,1493.5 C 1498.04,1493.56 1498.38,1493.89 1498.5,1494.5C 1439,1495.83 1379.67,1495.83 1320.5,1494.5C 1379.67,1494.83 1438.67,1494.5 1497.5,1493.5 Z"/></g>
</svg>
