<?xml version="1.0" encoding="UTF-8"?>
<!DOCTYPE svg PUBLIC "-//W3C//DTD SVG 1.1//EN" "http://www.w3.org/Graphics/SVG/1.1/DTD/svg11.dtd">
<svg xmlns="http://www.w3.org/2000/svg" version="1.1" width="512px" height="512px" style="shape-rendering:geometricPrecision; text-rendering:geometricPrecision; image-rendering:optimizeQuality; fill-rule:evenodd; clip-rule:evenodd" xmlns:xlink="http://www.w3.org/1999/xlink">
<g><path style="opacity:0.992" fill="#44b78b" d="M 225.5,63.5 C 246.833,63.5 268.167,63.5 289.5,63.5C 289.833,160.502 289.5,257.502 288.5,354.5C 245.697,364.271 202.697,365.438 159.5,358C 116.441,346.731 92.9407,318.897 89,274.5C 86.3152,199.353 122.482,159.687 197.5,155.5C 206.953,155.515 216.286,156.515 225.5,158.5C 225.5,126.833 225.5,95.1667 225.5,63.5 Z M 193.5,207.5 C 201.174,207.334 208.841,207.5 216.5,208C 219.43,208.606 222.263,209.44 225,210.5C 225.5,243.832 225.667,277.165 225.5,310.5C 168.307,317.474 145.807,292.808 158,236.5C 164.774,220.543 176.607,210.876 193.5,207.5 Z"/></g>
<g><path style="opacity:0.986" fill="#44b68a" d="M 326.5,63.5 C 347.833,63.5 369.167,63.5 390.5,63.5C 390.5,85.1667 390.5,106.833 390.5,128.5C 369.167,128.5 347.833,128.5 326.5,128.5C 326.5,106.833 326.5,85.1667 326.5,63.5 Z"/></g>
<g><path style="opacity:0.99" fill="#44b68b" d="M 326.5,159.5 C 347.833,159.5 369.167,159.5 390.5,159.5C 390.667,216.168 390.5,272.834 390,329.5C 390.863,356.672 385.197,382.339 373,406.5C 365.589,418.579 356.089,428.746 344.5,437C 338.037,441.565 331.037,445.065 323.5,447.5C 306.069,439.952 288.735,432.119 271.5,424C 268.79,422.985 266.457,421.485 264.5,419.5C 305.104,403.006 325.27,372.673 325,328.5C 326.368,272.177 326.868,215.843 326.5,159.5 Z"/></g>
</svg>
