<?xml version="1.0" encoding="UTF-8"?>
<!DOCTYPE svg PUBLIC "-//W3C//DTD SVG 1.1//EN" "http://www.w3.org/Graphics/SVG/1.1/DTD/svg11.dtd">
<svg xmlns="http://www.w3.org/2000/svg" version="1.1" width="2048px" height="2048px" style="shape-rendering:geometricPrecision; text-rendering:geometricPrecision; image-rendering:optimizeQuality; fill-rule:evenodd; clip-rule:evenodd" xmlns:xlink="http://www.w3.org/1999/xlink">
<g><path style="opacity:0.994" fill="#e534ab" d="M 1010.5,20.5 C 1091.57,18.7629 1150.4,53.7629 1187,125.5C 1204.26,165.853 1207.1,207.187 1195.5,249.5C 1330.63,328.237 1465.97,406.737 1601.5,485C 1603.4,486.301 1605.4,486.968 1607.5,487C 1655.18,440.571 1711.85,423.905 1777.5,437C 1834.58,451.605 1875.75,485.438 1901,538.5C 1927.61,606.196 1918.95,668.862 1875,726.5C 1849.62,756.449 1817.78,776.116 1779.5,785.5C 1779.5,944.167 1779.5,1102.83 1779.5,1261.5C 1833.83,1275.99 1873.66,1308.33 1899,1358.5C 1928.4,1429 1919.4,1494 1872,1553.5C 1823.69,1604.6 1764.86,1623.43 1695.5,1610C 1659.29,1601.24 1628.62,1583.24 1603.5,1556C 1467.19,1633.33 1331.19,1711.5 1195.5,1790.5C 1195.17,1791.17 1194.83,1791.83 1194.5,1792.5C 1212.73,1858.19 1199.9,1916.86 1156,1968.5C 1108.31,2017.28 1050.81,2035.11 983.5,2022C 911.492,2002.66 866.325,1956.83 848,1884.5C 842.434,1855.19 843.601,1826.19 851.5,1797.5C 714.463,1717.97 577.296,1638.63 440,1559.5C 392.296,1606.39 335.462,1623.23 269.5,1610C 208.679,1594.51 166.512,1557.68 143,1499.5C 120.472,1432.82 131.139,1372.16 175,1317.5C 199.968,1289.26 230.802,1270.59 267.5,1261.5C 267.5,1102.83 267.5,944.167 267.5,785.5C 192.696,764.526 147.863,715.86 133,639.5C 124.421,566.51 149.254,508.01 207.5,464C 262.564,428.76 320.564,423.094 381.5,447C 403.27,456.878 422.603,470.212 439.5,487C 440.167,487.667 440.833,487.667 441.5,487C 578.366,408.071 715.032,328.904 851.5,249.5C 833.664,178.196 850.997,117.03 903.5,66C 934.229,39.3044 969.895,24.1377 1010.5,20.5 Z M 894.5,324.5 C 899.508,326.587 900.341,329.587 897,333.5C 717.601,643.242 538.601,953.242 360,1263.5C 358.215,1262.76 356.382,1262.09 354.5,1261.5C 353.167,1102.83 353.167,944.167 354.5,785.5C 415.283,768.55 456.783,730.55 479,671.5C 491.257,635.489 492.591,599.156 483,562.5C 620.335,483.303 757.502,403.97 894.5,324.5 Z M 1151.5,324.5 C 1289.3,403.902 1426.97,483.569 1564.5,563.5C 1548.86,626.157 1561.69,682.157 1603,731.5C 1627.41,758.295 1657.24,776.295 1692.5,785.5C 1693.83,944.167 1693.83,1102.83 1692.5,1261.5C 1690.3,1262.78 1688.13,1262.78 1686,1261.5C 1506.63,950.585 1327.13,639.752 1147.5,329C 1149.04,327.629 1150.37,326.129 1151.5,324.5 Z M 973.5,372.5 C 995.844,378.066 1018.51,379.9 1041.5,378C 1052.25,376.448 1062.91,374.781 1073.5,373C 1253.17,684 1432.83,995 1612.5,1306C 1587.35,1329.72 1570.68,1358.55 1562.5,1392.5C 1203.17,1392.5 843.833,1392.5 484.5,1392.5C 476.389,1358.59 459.722,1329.76 434.5,1306C 614.394,994.945 794.061,683.779 973.5,372.5 Z M 484.5,1478.5 C 843.834,1478.17 1203.17,1478.5 1562.5,1479.5C 1563.35,1482.55 1564.35,1485.55 1565.5,1488.5C 1429.59,1568.38 1293.09,1647.38 1156,1725.5C 1108.71,1677.96 1051.87,1660.13 985.5,1672C 950.133,1680.01 919.8,1696.84 894.5,1722.5C 758.663,1643.75 622.663,1565.25 486.5,1487C 483.297,1484.81 482.63,1481.98 484.5,1478.5 Z"/></g>
</svg>
