<?xml version="1.0" encoding="UTF-8"?>
<!DOCTYPE svg PUBLIC "-//W3C//DTD SVG 1.1//EN" "http://www.w3.org/Graphics/SVG/1.1/DTD/svg11.dtd">
<svg xmlns="http://www.w3.org/2000/svg" version="1.1" width="512px" height="512px" style="shape-rendering:geometricPrecision; text-rendering:geometricPrecision; image-rendering:optimizeQuality; fill-rule:evenodd; clip-rule:evenodd" xmlns:xlink="http://www.w3.org/1999/xlink">
<g><path style="opacity:0.995" fill="#ff9100" d="M 39.5,-0.5 C 111.5,-0.5 183.5,-0.5 255.5,-0.5C 255.5,19.5 255.5,39.5 255.5,59.5C 205.499,59.3333 155.499,59.5 105.5,60C 97.543,62.9551 94.2096,68.6218 95.5,77C 100.024,141.831 104.524,206.664 109,271.5C 110.298,277.469 113.798,281.635 119.5,284C 164.832,284.5 210.165,284.667 255.5,284.5C 255.5,306.833 255.5,329.167 255.5,351.5C 255.167,351.5 254.833,351.5 254.5,351.5C 237.499,346.166 220.499,340.833 203.5,335.5C 205.012,325.349 201.012,318.515 191.5,315C 169.167,314.333 146.833,314.333 124.5,315C 116.475,317.542 112.808,323.042 113.5,331.5C 114.729,353.234 116.562,374.901 119,396.5C 121.292,400.788 124.792,403.622 129.5,405C 170.425,418.808 211.425,432.308 252.5,445.5C 253.209,446.404 254.209,446.737 255.5,446.5C 255.5,468.167 255.5,489.833 255.5,511.5C 253.833,511.5 252.167,511.5 250.5,511.5C 192.452,490.871 134.118,470.705 75.5,451C 68.9339,449.751 64.1005,446.251 61,440.5C 50.3569,298.496 39.8569,156.496 29.5,14.5C 30.1258,7.55271 33.4591,2.55271 39.5,-0.5 Z"/></g>
<g><path style="opacity:1" fill="#ff641a" d="M 255.5,-0.5 C 327.5,-0.5 399.5,-0.5 471.5,-0.5C 477.541,2.55271 480.874,7.55271 481.5,14.5C 471.143,156.496 460.643,298.496 450,440.5C 447.673,445.423 443.84,448.59 438.5,450C 379.031,470.433 319.698,490.933 260.5,511.5C 258.833,511.5 257.167,511.5 255.5,511.5C 255.5,489.833 255.5,468.167 255.5,446.5C 298.575,432.642 341.575,418.475 384.5,404C 391.471,399.893 394.638,393.727 394,385.5C 398.618,325.186 402.618,264.853 406,204.5C 404.073,199.572 400.573,196.406 395.5,195C 348.835,194.5 302.168,194.333 255.5,194.5C 255.5,179.5 255.5,164.5 255.5,149.5C 304.168,149.667 352.834,149.5 401.5,149C 407.164,146.668 410.664,142.501 412,136.5C 413.149,115.972 414.649,95.4718 416.5,75C 415.893,67.7301 412.226,62.7301 405.5,60C 355.501,59.5 305.501,59.3333 255.5,59.5C 255.5,39.5 255.5,19.5 255.5,-0.5 Z"/></g>
<g><path style="opacity:1" fill="#fff4f4" d="M 255.5,59.5 C 255.5,89.5 255.5,119.5 255.5,149.5C 234.167,149.5 212.833,149.5 191.5,149.5C 192.309,164.493 192.976,179.493 193.5,194.5C 214.167,194.5 234.833,194.5 255.5,194.5C 255.5,224.5 255.5,254.5 255.5,284.5C 210.165,284.667 164.832,284.5 119.5,284C 113.798,281.635 110.298,277.469 109,271.5C 104.524,206.664 100.024,141.831 95.5,77C 94.2096,68.6218 97.543,62.9551 105.5,60C 155.499,59.5 205.499,59.3333 255.5,59.5 Z"/></g>
<g><path style="opacity:1" fill="#efe1dc" d="M 255.5,59.5 C 305.501,59.3333 355.501,59.5 405.5,60C 412.226,62.7301 415.893,67.7301 416.5,75C 414.649,95.4718 413.149,115.972 412,136.5C 410.664,142.501 407.164,146.668 401.5,149C 352.834,149.5 304.168,149.667 255.5,149.5C 255.5,119.5 255.5,89.5 255.5,59.5 Z"/></g>
<g><path style="opacity:1" fill="#ff9100" d="M 255.5,149.5 C 255.5,164.5 255.5,179.5 255.5,194.5C 234.833,194.5 214.167,194.5 193.5,194.5C 192.976,179.493 192.309,164.493 191.5,149.5C 212.833,149.5 234.167,149.5 255.5,149.5 Z"/></g>
<g><path style="opacity:1" fill="#efe1dc" d="M 255.5,194.5 C 302.168,194.333 348.835,194.5 395.5,195C 400.573,196.406 404.073,199.572 406,204.5C 402.618,264.853 398.618,325.186 394,385.5C 394.638,393.727 391.471,399.893 384.5,404C 341.575,418.475 298.575,432.642 255.5,446.5C 254.209,446.737 253.209,446.404 252.5,445.5C 253.5,445.5 254.5,445.5 255.5,445.5C 255.825,414.093 255.492,382.76 254.5,351.5C 254.833,351.5 255.167,351.5 255.5,351.5C 272.797,346.218 289.963,340.551 307,334.5C 308.001,317.81 309.168,301.143 310.5,284.5C 292.167,284.5 273.833,284.5 255.5,284.5C 255.5,254.5 255.5,224.5 255.5,194.5 Z"/></g>
<g><path style="opacity:1" fill="#fe641a" d="M 255.5,284.5 C 273.833,284.5 292.167,284.5 310.5,284.5C 309.168,301.143 308.001,317.81 307,334.5C 289.963,340.551 272.797,346.218 255.5,351.5C 255.5,329.167 255.5,306.833 255.5,284.5 Z"/></g>
<g><path style="opacity:1" fill="#fff4f4" d="M 254.5,351.5 C 255.492,382.76 255.825,414.093 255.5,445.5C 254.5,445.5 253.5,445.5 252.5,445.5C 211.425,432.308 170.425,418.808 129.5,405C 124.792,403.622 121.292,400.788 119,396.5C 116.562,374.901 114.729,353.234 113.5,331.5C 112.808,323.042 116.475,317.542 124.5,315C 146.833,314.333 169.167,314.333 191.5,315C 201.012,318.515 205.012,325.349 203.5,335.5C 220.499,340.833 237.499,346.166 254.5,351.5 Z"/></g>
</svg>
