<?xml version="1.0" encoding="UTF-8"?>
<!DOCTYPE svg PUBLIC "-//W3C//DTD SVG 1.1//EN" "http://www.w3.org/Graphics/SVG/1.1/DTD/svg11.dtd">
<svg xmlns="http://www.w3.org/2000/svg" version="1.1" width="995px" height="1024px" style="shape-rendering:geometricPrecision; text-rendering:geometricPrecision; image-rendering:optimizeQuality; fill-rule:evenodd; clip-rule:evenodd" xmlns:xlink="http://www.w3.org/1999/xlink">
<g><path style="opacity:0.966" fill="#ff2c1f" d="M 200.5,-0.5 C 205.5,-0.5 210.5,-0.5 215.5,-0.5C 276.832,35.5021 338.499,71.0021 400.5,106C 406.291,108.98 411.457,112.813 416,117.5C 417.159,257.133 417.992,396.8 418.5,536.5C 470.702,505.9 523.035,475.567 575.5,445.5C 576.333,374.502 576.833,303.502 577,232.5C 577.29,230.048 577.956,227.715 579,225.5C 582.167,223 585.333,220.5 588.5,218C 650.252,183.132 711.586,147.799 772.5,112C 780.658,106.499 788.992,106.166 797.5,111C 859.179,147.174 921.179,182.841 983.5,218C 987.652,220.722 991.319,223.888 994.5,227.5C 994.5,305.833 994.5,384.167 994.5,462.5C 992.4,465.104 990.067,467.604 987.5,470C 925.972,504.928 864.638,540.094 803.5,575.5C 802.667,647.498 802.167,719.498 802,791.5C 800.629,794.88 798.462,797.713 795.5,800C 666.125,874.807 536.792,949.307 407.5,1023.5C 402.833,1023.5 398.167,1023.5 393.5,1023.5C 392.064,1022.57 390.731,1021.4 389.5,1020C 261.52,946.699 133.52,873.366 5.5,800C 3.97309,797.31 1.97309,795.143 -0.5,793.5C -0.5,568.833 -0.5,344.167 -0.5,119.5C 1.28644,116.875 3.28644,114.375 5.5,112C 70.9217,74.9647 135.922,37.4647 200.5,-0.5 Z M 206.5,35.5 C 216.583,40.3949 226.583,45.5615 236.5,51C 279.368,76.2661 322.368,101.266 365.5,126C 338.957,142.562 311.957,158.229 284.5,173C 271.801,180.68 259.134,188.346 246.5,196C 234.596,202.234 222.929,208.901 211.5,216C 209.956,217.187 208.289,217.52 206.5,217C 154.401,186.854 102.401,156.521 50.5,126C 102.982,96.4711 154.982,66.3045 206.5,35.5 Z M 784.5,144.5 C 786.812,145.32 789.146,146.153 791.5,147C 841.734,176.28 892.068,205.28 942.5,234C 943.451,234.718 943.617,235.551 943,236.5C 890.624,266.518 838.291,296.518 786,326.5C 733.881,296.526 681.715,266.692 629.5,237C 628.167,236 628.167,235 629.5,234C 681.335,204.303 733.002,174.47 784.5,144.5 Z M 32.5,156.5 C 85.5553,186.444 138.389,216.778 191,247.5C 191.333,392.5 191.667,537.5 192,682.5C 193.4,685.902 195.567,688.736 198.5,691C 260.399,726.113 322.399,760.947 384.5,795.5C 384.5,856.167 384.5,916.833 384.5,977.5C 266.992,910.827 149.825,843.494 33,775.5C 32.5,569.167 32.3333,362.834 32.5,156.5 Z M 382.5,156.5 C 384.498,289.496 385.165,422.829 384.5,556.5C 379.746,558.376 375.079,560.542 370.5,563C 322.296,591.366 273.963,619.533 225.5,647.5C 224.333,514.168 224.167,380.835 225,247.5C 277.692,217.442 330.192,187.109 382.5,156.5 Z M 609.5,264.5 C 662.634,294.651 715.634,324.984 768.5,355.5C 769.833,415.833 769.833,476.167 768.5,536.5C 715.666,505.585 662.666,475.252 609.5,445.5C 609.5,385.167 609.5,324.833 609.5,264.5 Z M 960.5,264.5 C 961.832,324.668 961.832,385.001 960.5,445.5C 908.035,475.567 855.702,505.9 803.5,536.5C 802.167,476.167 802.167,415.833 803.5,355.5C 855.199,325.986 906.865,296.486 958.5,267C 959.381,266.292 960.047,265.458 960.5,264.5 Z M 591.5,475.5 C 593.199,475.62 594.865,475.954 596.5,476.5C 648.163,506.332 699.829,536.165 751.5,566C 634.937,632.868 518.104,699.368 401,765.5C 348.424,736.589 296.091,707.256 244,677.5C 243.383,676.551 243.549,675.718 244.5,675C 360.465,609.018 476.131,542.518 591.5,475.5 Z M 767.5,595.5 C 768.833,625.159 769.5,655.159 769.5,685.5C 769.333,715.5 769.167,745.5 769,775.5C 652.054,843.105 534.887,910.438 417.5,977.5C 417.167,916.83 417.5,856.163 418.5,795.5C 534.927,728.682 651.26,662.015 767.5,595.5 Z"/></g>
</svg>
