<?xml version="1.0" encoding="UTF-8"?>
<!DOCTYPE svg PUBLIC "-//W3C//DTD SVG 1.1//EN" "http://www.w3.org/Graphics/SVG/1.1/DTD/svg11.dtd">
<svg xmlns="http://www.w3.org/2000/svg" version="1.1" width="2560px" height="2035px" style="shape-rendering:geometricPrecision; text-rendering:geometricPrecision; image-rendering:optimizeQuality; fill-rule:evenodd; clip-rule:evenodd" xmlns:xlink="http://www.w3.org/1999/xlink">
<g><path style="opacity:0.998" fill="#00b0ff" d="M -0.5,-0.5 C -0.166667,-0.5 0.166667,-0.5 0.5,-0.5C 319.968,184.404 639.635,369.071 959.5,553.5C 959.5,677.167 959.5,800.833 959.5,924.5C 746.279,801.638 533.112,678.638 320,555.5C 319.833,801.501 319.333,1047.5 318.5,1293.5C 212.15,1232.14 105.816,1170.81 -0.5,1109.5C -0.5,739.5 -0.5,369.5 -0.5,-0.5 Z"/></g>
<g><path style="opacity:0.998" fill="#0081cb" d="M 1918.5,-0.5 C 1918.83,-0.5 1919.17,-0.5 1919.5,-0.5C 1919.67,369.5 1919.5,739.5 1919,1109.5C 1706.19,1232.15 1493.69,1355.15 1281.5,1478.5C 1174.18,1416.86 1066.85,1355.19 959.5,1293.5C 1172.11,1169.85 1385.11,1046.69 1598.5,924C 1599.67,801.236 1599.83,678.403 1599,555.5C 1385.89,678.638 1172.72,801.638 959.5,924.5C 959.5,800.833 959.5,677.167 959.5,553.5C 1279.69,369.576 1599.36,184.909 1918.5,-0.5 Z"/></g>
<g><path style="opacity:0.997" fill="#0081cb" d="M 2558.5,-0.5 C 2558.83,-0.5 2559.17,-0.5 2559.5,-0.5C 2559.5,123.167 2559.5,246.833 2559.5,370.5C 2453.36,432.074 2347.02,493.408 2240.5,554.5C 2239.33,431.168 2239.17,307.835 2240,184.5C 2346.31,122.933 2452.48,61.2662 2558.5,-0.5 Z"/></g>
<g><path style="opacity:0.998" fill="#0081cb" d="M 2559.5,738.5 C 2559.5,985.5 2559.5,1232.5 2559.5,1479.5C 2239.5,1663.83 1919.5,1848.17 1599.5,2032.5C 1599.17,1908.76 1599.5,1785.1 1600.5,1661.5C 1813.14,1538.85 2025.81,1416.18 2238.5,1293.5C 2239.17,1169.83 2239.83,1046.17 2240.5,922.5C 2347.02,861.408 2453.36,800.074 2559.5,738.5 Z"/></g>
<g><path style="opacity:0.998" fill="#00affe" d="M 959.5,1293.5 C 1066.85,1355.19 1174.18,1416.86 1281.5,1478.5C 1387.42,1540.29 1493.75,1601.29 1600.5,1661.5C 1599.5,1785.1 1599.17,1908.76 1599.5,2032.5C 1385.98,1910.16 1172.81,1787.16 960,1663.5C 959.5,1540.17 959.333,1416.83 959.5,1293.5 Z"/></g>
</svg>
