<?xml version="1.0" encoding="UTF-8"?>
<!DOCTYPE svg PUBLIC "-//W3C//DTD SVG 1.1//EN" "http://www.w3.org/Graphics/SVG/1.1/DTD/svg11.dtd">
<svg xmlns="http://www.w3.org/2000/svg" version="1.1" width="512px" height="512px" style="shape-rendering:geometricPrecision; text-rendering:geometricPrecision; image-rendering:optimizeQuality; fill-rule:evenodd; clip-rule:evenodd" xmlns:xlink="http://www.w3.org/1999/xlink">
<g><path style="opacity:0.967" fill="#01748f" d="M 511.5,503.5 C 511.5,504.833 511.5,506.167 511.5,507.5C 500.375,498.766 489.042,490.266 477.5,482C 464.202,475.34 450.869,468.673 437.5,462C 423.501,453.666 411.001,443.5 400,431.5C 394.678,424.856 391.011,417.523 389,409.5C 389.465,408.069 390.299,406.903 391.5,406C 416.789,395.618 443.122,390.952 470.5,392C 469.299,391.097 468.465,389.931 468,388.5C 449.762,375.297 431.262,362.463 412.5,350C 395.539,342.679 378.206,336.346 360.5,331C 354.228,327.64 349.395,322.807 346,316.5C 342.078,309.658 338.412,302.658 335,295.5C 319.785,263.07 305.118,230.403 291,197.5C 258.651,138.149 211.817,94.316 150.5,66C 144.909,63.8029 139.242,61.8029 133.5,60C 119.836,58.7111 106.169,57.3777 92.5,56C 73.268,39.9663 51.4347,28.7997 27,22.5C 24.5,23.3333 22,24.1667 19.5,25C 15.0912,30.8304 14.9246,36.9971 19,43.5C 20.5862,45.6705 21.9196,48.0038 23,50.5C 33.7332,63.6342 43.7332,77.3009 53,91.5C 55.9425,97.7181 58.6091,104.051 61,110.5C 65.7374,126.379 71.0707,142.046 77,157.5C 82.3293,170.157 89.996,181.157 100,190.5C 103.921,197.241 104.255,204.241 101,211.5C 83.0508,252.893 83.0508,294.226 101,335.5C 103.412,339.916 106.578,343.749 110.5,347C 112.345,348.128 114.345,348.628 116.5,348.5C 117.148,331.126 119.982,314.126 125,297.5C 130.013,288.136 136.013,279.47 143,271.5C 159.925,314.366 182.259,354.032 210,390.5C 216.057,396.893 222.391,402.893 229,408.5C 229.667,409.5 229.667,410.5 229,411.5C 225.081,409.124 221.248,406.624 217.5,404C 201.365,389.533 185.532,374.7 170,359.5C 166,354.167 162,348.833 158,343.5C 153.861,333.888 149.194,324.554 144,315.5C 141.628,327.435 139.628,339.435 138,351.5C 133.511,366.497 123.678,371.664 108.5,367C 99.6667,362.167 92.8333,355.333 88,346.5C 71.2008,312.772 66.8674,277.438 75,240.5C 77.6468,231.246 79.9801,221.913 82,212.5C 82.7389,208.938 84.2389,205.772 86.5,203C 75.5387,190.262 66.7054,176.095 60,160.5C 52.8703,142.444 46.5369,124.111 41,105.5C 31.9816,90.7957 21.9816,76.7957 11,63.5C 6.34228,56.515 2.50895,49.1817 -0.5,41.5C -0.5,36.1667 -0.5,30.8333 -0.5,25.5C 4.0614,10.9594 14.0614,3.62609 29.5,3.5C 57.3776,7.10791 81.711,18.2746 102.5,37C 135.32,37.0326 165.32,46.0326 192.5,64C 246.504,97.3348 288.004,142.168 317,198.5C 331.828,236.157 348.828,272.824 368,308.5C 369.873,310.709 372.04,312.542 374.5,314C 415.661,329.518 451.827,352.684 483,383.5C 486.285,388.454 489.952,393.12 494,397.5C 494.494,399.134 494.66,400.801 494.5,402.5C 480.206,407.138 465.539,409.972 450.5,411C 440.592,413.694 430.592,415.861 420.5,417.5C 420.491,419.308 420.991,420.975 422,422.5C 424.833,425.333 427.667,428.167 430.5,431C 440.666,437.584 451,443.918 461.5,450C 475,459.5 486.5,471 496,484.5C 503.242,489.233 508.409,495.566 511.5,503.5 Z"/></g>
<g><path style="opacity:0.938" fill="#03748f" d="M 110.5,89.5 C 115.485,89.6181 119.818,91.4515 123.5,95C 130.457,102.855 131.29,111.355 126,120.5C 124.649,122.019 123.149,123.352 121.5,124.5C 118.682,118.864 115.849,113.198 113,107.5C 108.592,102.927 104.759,97.9272 101.5,92.5C 104.425,91.0473 107.425,90.0473 110.5,89.5 Z"/></g>
</svg>
