<?xml version="1.0" encoding="UTF-8"?>
<!DOCTYPE svg PUBLIC "-//W3C//DTD SVG 1.1//EN" "http://www.w3.org/Graphics/SVG/1.1/DTD/svg11.dtd">
<svg xmlns="http://www.w3.org/2000/svg" version="1.1" width="454px" height="512px" style="shape-rendering:geometricPrecision; text-rendering:geometricPrecision; image-rendering:optimizeQuality; fill-rule:evenodd; clip-rule:evenodd" xmlns:xlink="http://www.w3.org/1999/xlink">
<g><path style="opacity:0.962" fill="#529e42" d="M 214.5,-0.5 C 222.5,-0.5 230.5,-0.5 238.5,-0.5C 294.926,31.4085 351.26,63.5752 407.5,96C 419.274,102.635 430.607,109.801 441.5,117.5C 441.427,119.027 442.094,120.027 443.5,120.5C 445.074,120.937 446.241,121.937 447,123.5C 449.064,127.685 451.231,131.685 453.5,135.5C 453.5,215.5 453.5,295.5 453.5,375.5C 450.736,382.194 447.069,388.361 442.5,394C 382.327,429.587 321.994,464.921 261.5,500C 253.948,504.333 246.282,508.166 238.5,511.5C 230.833,511.5 223.167,511.5 215.5,511.5C 211.71,509.442 207.71,507.609 203.5,506C 183.202,493.179 162.535,480.845 141.5,469C 139.773,467.611 138.439,465.944 137.5,464C 137.759,462.739 138.426,461.739 139.5,461C 151.126,457.889 161.959,453.056 172,446.5C 190.21,456.356 208.21,466.69 226,477.5C 289.925,441.233 353.592,404.566 417,367.5C 418.654,293.877 418.988,220.211 418,146.5C 417.727,144.671 416.893,143.171 415.5,142C 352.383,105.693 289.216,69.5264 226,33.5C 162.72,69.5541 99.5531,105.721 36.5,142C 35.5399,143.419 34.7065,144.919 34,146.5C 33.3333,218.833 33.3333,291.167 34,363.5C 34.3603,365.421 35.1936,367.088 36.5,368.5C 53.4947,378.331 70.4947,388.164 87.5,398C 93.7509,400.688 100.251,402.521 107,403.5C 117.736,402.409 125.403,397.076 130,387.5C 130.333,313.167 130.667,238.833 131,164.5C 131.513,162.479 132.68,160.979 134.5,160C 144.5,159.333 154.5,159.333 164.5,160C 165.416,160.374 166.25,160.874 167,161.5C 167.667,238.5 167.667,315.5 167,392.5C 163.513,419.987 148.013,435.487 120.5,439C 103.559,440.745 87.5594,437.745 72.5,430C 54.1667,419.667 35.8333,409.333 17.5,399C 13.316,395.835 9.48268,392.335 6,388.5C 3.78739,384.075 1.62073,379.741 -0.5,375.5C -0.5,295.833 -0.5,216.167 -0.5,136.5C 1.32818,132.122 3.49485,127.789 6,123.5C 7.0391,122.29 8.20577,121.29 9.5,120.5C 10.9063,120.027 11.573,119.027 11.5,117.5C 13.6467,115.53 15.98,113.697 18.5,112C 36.3724,101.901 54.039,91.5681 71.5,81C 119.007,53.3516 166.673,26.1849 214.5,-0.5 Z"/></g>
<g><path style="opacity:0.131" fill="#509e40" d="M 11.5,117.5 C 11.573,119.027 10.9063,120.027 9.5,120.5C 9.42702,118.973 10.0937,117.973 11.5,117.5 Z"/></g>
<g><path style="opacity:0.131" fill="#509e40" d="M 441.5,117.5 C 442.906,117.973 443.573,118.973 443.5,120.5C 442.094,120.027 441.427,119.027 441.5,117.5 Z"/></g>
<g><path style="opacity:0.958" fill="#529d42" d="M 356.5,178.5 C 356.427,180.027 357.094,181.027 358.5,181.5C 367.614,193.492 371.78,207.159 371,222.5C 370.5,224.333 369.333,225.5 367.5,226C 357.833,226.667 348.167,226.667 338.5,226C 337.667,225.167 336.833,224.333 336,223.5C 330.826,200.469 316.326,188.635 292.5,188C 275.457,186.161 258.79,187.827 242.5,193C 230.87,200.056 227.537,209.89 232.5,222.5C 239.041,227.299 246.375,230.465 254.5,232C 279.925,235.452 305.258,239.452 330.5,244C 344.594,247.131 357.094,253.298 368,262.5C 372.474,268.582 375.807,275.249 378,282.5C 383.768,316.138 371.268,339.972 340.5,354C 301.088,366.839 261.755,366.505 222.5,353C 204.33,344.494 192.164,330.661 186,311.5C 185.061,304.512 184.728,297.512 185,290.5C 185.465,289.069 186.299,287.903 187.5,287C 197.833,286.333 208.167,286.333 218.5,287C 220.995,289.916 222.162,293.416 222,297.5C 224.841,309.672 232.008,318.172 243.5,323C 270.177,330.283 296.844,330.283 323.5,323C 326.649,321.338 329.649,319.505 332.5,317.5C 334.5,317.5 335.5,316.5 335.5,314.5C 341.248,306.053 341.748,297.387 337,288.5C 331.507,284.169 325.34,281.003 318.5,279C 311.476,277.795 304.476,276.462 297.5,275C 273.058,273.371 249.058,269.371 225.5,263C 213.044,258.368 203.211,250.535 196,239.5C 182.815,197.996 196.982,170.496 238.5,157C 271.001,149.771 303.001,151.438 334.5,162C 343.173,165.857 350.507,171.357 356.5,178.5 Z"/></g>
<g><path style="opacity:0.072" fill="#509e40" d="M 356.5,178.5 C 357.906,178.973 358.573,179.973 358.5,181.5C 357.094,181.027 356.427,180.027 356.5,178.5 Z"/></g>
<g><path style="opacity:0.136" fill="#509e40" d="M 335.5,314.5 C 335.5,316.5 334.5,317.5 332.5,317.5C 333.167,316.167 334.167,315.167 335.5,314.5 Z"/></g>
</svg>
