<?xml version="1.0" encoding="UTF-8"?>
<!DOCTYPE svg PUBLIC "-//W3C//DTD SVG 1.1//EN" "http://www.w3.org/Graphics/SVG/1.1/DTD/svg11.dtd">
<svg xmlns="http://www.w3.org/2000/svg" version="1.1" width="512px" height="512px" style="shape-rendering:geometricPrecision; text-rendering:geometricPrecision; image-rendering:optimizeQuality; fill-rule:evenodd; clip-rule:evenodd" xmlns:xlink="http://www.w3.org/1999/xlink">
<g><path style="opacity:0.989" fill="#7fc8f0" d="M 233.5,-0.5 C 248.167,-0.5 262.833,-0.5 277.5,-0.5C 377.805,11.9821 449.305,63.9821 492,155.5C 502.297,180.687 508.797,206.687 511.5,233.5C 511.5,234.5 511.5,235.5 511.5,236.5C 485.61,211.11 459.776,185.444 434,159.5C 433.601,159.728 433.435,160.062 433.5,160.5C 417.318,141.412 396.652,132.079 371.5,132.5C 373.527,132.662 375.527,132.495 377.5,132C 360.251,114.583 342.917,97.4166 325.5,80.5C 316.717,69.8871 305.717,66.5538 292.5,70.5C 282.489,59.999 270.156,54.6656 255.5,54.5C 246.179,54.6618 237.512,57.1618 229.5,62C 215.17,72.4998 204.003,85.6664 196,101.5C 190.413,112.432 185.913,123.766 182.5,135.5C 175.776,135.16 169.11,134.326 162.5,133C 143.456,131.635 124.789,133.635 106.5,139C 87.0802,145.912 75.4135,159.412 71.5,179.5C 56.0045,188.821 51.8378,201.821 59,218.5C 61.6961,222.361 64.8627,225.694 68.5,228.5C 78.7582,239.425 89.4249,250.092 100.5,260.5C 89.466,273.219 80.966,287.553 75,303.5C 66.4892,327.901 71.9892,348.235 91.5,364.5C 138.491,413.326 186.658,461.659 236,509.5C 236.464,510.094 236.631,510.761 236.5,511.5C 235.5,511.5 234.5,511.5 233.5,511.5C 133.195,499.018 61.6947,447.018 19,355.5C 8.70332,330.313 2.20332,304.313 -0.5,277.5C -0.5,262.833 -0.5,248.167 -0.5,233.5C 11.9821,133.195 63.9821,61.6947 155.5,19C 180.687,8.70332 206.687,2.20332 233.5,-0.5 Z"/></g>
<g><path style="opacity:1" fill="#fdfefe" d="M 255.5,54.5 C 254.934,61.4509 255.601,68.1176 257.5,74.5C 250.964,73.845 244.964,75.345 239.5,79C 228.175,87.827 219.341,98.6604 213,111.5C 208.68,120.295 204.846,129.295 201.5,138.5C 219.626,143.764 237.626,149.431 255.5,155.5C 255.5,162.833 255.5,170.167 255.5,177.5C 231.199,187.149 208.199,199.149 186.5,213.5C 184.001,240.453 183.835,267.453 186,294.5C 186.219,295.938 186.719,297.271 187.5,298.5C 209.029,312.265 231.696,323.932 255.5,333.5C 255.5,340.833 255.5,348.167 255.5,355.5C 237.626,361.569 219.626,367.236 201.5,372.5C 207.164,389.027 214.997,404.36 225,418.5C 231.163,426.674 238.996,432.507 248.5,436C 251.482,436.498 254.482,436.665 257.5,436.5C 255.601,442.882 254.934,449.549 255.5,456.5C 242.875,456.57 231.875,452.403 222.5,444C 203.122,424.768 189.789,401.934 182.5,375.5C 158.73,379.764 135.063,379.264 111.5,374C 104.412,371.622 97.7457,368.455 91.5,364.5C 71.9892,348.235 66.4892,327.901 75,303.5C 80.966,287.553 89.466,273.219 100.5,260.5C 101.458,259.038 102.624,257.705 104,256.5C 104.667,255.833 104.667,255.167 104,254.5C 98.6153,248.116 93.6153,241.45 89,234.5C 87.8904,232.963 86.3904,232.297 84.5,232.5C 92.4322,231.867 99.0989,228.534 104.5,222.5C 108.791,228.792 113.458,234.792 118.5,240.5C 133.637,226.691 149.637,214.024 166.5,202.5C 169.346,186.775 172.679,171.109 176.5,155.5C 156.794,151.356 137.127,151.522 117.5,156C 104.915,159.092 96.2486,166.592 91.5,178.5C 84.7221,176.954 78.0555,177.288 71.5,179.5C 75.4135,159.412 87.0802,145.912 106.5,139C 124.789,133.635 143.456,131.635 162.5,133C 169.11,134.326 175.776,135.16 182.5,135.5C 185.913,123.766 190.413,112.432 196,101.5C 204.003,85.6664 215.17,72.4998 229.5,62C 237.512,57.1618 246.179,54.6618 255.5,54.5 Z"/></g>
<g><path style="opacity:1" fill="#fdf4cb" d="M 255.5,54.5 C 270.156,54.6656 282.489,59.999 292.5,70.5C 289.194,71.8202 286.194,73.6535 283.5,76C 281.248,78.7361 279.248,81.5695 277.5,84.5C 272.223,78.528 265.556,75.1947 257.5,74.5C 255.601,68.1176 254.934,61.4509 255.5,54.5 Z"/></g>
<g><path style="opacity:1" fill="#fd167f" d="M 325.5,80.5 C 332.468,93.3707 331.135,105.371 321.5,116.5C 316.29,120.794 310.29,123.127 303.5,123.5C 289.182,122.688 280.015,115.355 276,101.5C 275.123,95.6847 275.623,90.0181 277.5,84.5C 279.248,81.5695 281.248,78.7361 283.5,76C 286.194,73.6535 289.194,71.8202 292.5,70.5C 305.717,66.5538 316.717,69.8871 325.5,80.5 Z"/></g>
<g><path style="opacity:1" fill="#08ace9" d="M 257.5,74.5 C 265.556,75.1947 272.223,78.528 277.5,84.5C 275.623,90.0181 275.123,95.6847 276,101.5C 280.015,115.355 289.182,122.688 303.5,123.5C 305.573,128.718 307.24,134.052 308.5,139.5C 290.339,143.221 272.672,148.554 255.5,155.5C 237.626,149.431 219.626,143.764 201.5,138.5C 204.846,129.295 208.68,120.295 213,111.5C 219.341,98.6604 228.175,87.827 239.5,79C 244.964,75.345 250.964,73.845 257.5,74.5 Z"/></g>
<g><path style="opacity:1" fill="#0babe9" d="M 325.5,80.5 C 342.917,97.4166 360.251,114.583 377.5,132C 375.527,132.495 373.527,132.662 371.5,132.5C 357.124,132.363 342.791,133.03 328.5,134.5C 326.933,128.121 324.6,122.121 321.5,116.5C 331.135,105.371 332.468,93.3707 325.5,80.5 Z"/></g>
<g><path style="opacity:1" fill="#fdf4cb" d="M 321.5,116.5 C 324.6,122.121 326.933,128.121 328.5,134.5C 342.791,133.03 357.124,132.363 371.5,132.5C 396.652,132.079 417.318,141.412 433.5,160.5C 440.151,174.59 441.318,189.257 437,204.5C 430.396,223.721 420.229,240.721 406.5,255.5C 420.565,270.951 431.065,288.618 438,308.5C 444.589,341.828 431.756,363.662 399.5,374C 377.51,378.994 355.343,379.828 333,376.5C 331.5,376.833 330,377.167 328.5,377.5C 321.381,400.75 309.881,421.416 294,439.5C 285.794,447.188 276.294,452.688 265.5,456C 262.183,456.498 258.85,456.665 255.5,456.5C 254.934,449.549 255.601,442.882 257.5,436.5C 264.264,435.856 270.264,433.356 275.5,429C 291.779,412.951 302.779,393.784 308.5,371.5C 290.339,367.779 272.672,362.446 255.5,355.5C 255.5,348.167 255.5,340.833 255.5,333.5C 272.658,325.753 289.658,317.753 306.5,309.5C 307.295,316.089 309.962,321.755 314.5,326.5C 304.439,332.537 294.106,338.203 283.5,343.5C 293.907,347.435 304.574,350.435 315.5,352.5C 316.421,344.88 318.088,337.547 320.5,330.5C 325.848,333.005 331.514,334.005 337.5,333.5C 338.497,333.47 339.164,333.97 339.5,335C 337.466,342.035 336.133,349.202 335.5,356.5C 352.87,359.284 370.203,359.117 387.5,356C 416.08,350.43 425.58,333.93 416,306.5C 409.874,293.737 402.374,281.904 393.5,271C 385.713,276.088 378.38,282.088 371.5,289C 367.343,291.664 363.343,294.497 359.5,297.5C 357.157,291.134 353.157,286.134 347.5,282.5C 358.084,273.925 368.417,264.925 378.5,255.5C 368.752,246.081 358.419,237.414 347.5,229.5C 346.501,241.148 346.168,252.814 346.5,264.5C 345.833,269.833 345.167,275.167 344.5,280.5C 339.002,278.79 333.335,278.124 327.5,278.5C 326.51,272.69 326.177,266.69 326.5,260.5C 326.953,244.759 326.12,229.093 324,213.5C 302.261,199.546 279.428,187.546 255.5,177.5C 255.5,170.167 255.5,162.833 255.5,155.5C 272.672,148.554 290.339,143.221 308.5,139.5C 307.24,134.052 305.573,128.718 303.5,123.5C 310.29,123.127 316.29,120.794 321.5,116.5 Z"/></g>
<g><path style="opacity:1" fill="#09ace9" d="M 104.5,222.5 C 115.521,203.233 111.187,188.566 91.5,178.5C 96.2486,166.592 104.915,159.092 117.5,156C 137.127,151.522 156.794,151.356 176.5,155.5C 172.679,171.109 169.346,186.775 166.5,202.5C 149.637,214.024 133.637,226.691 118.5,240.5C 113.458,234.792 108.791,228.792 104.5,222.5 Z"/></g>
<g><path style="opacity:1" fill="#06ace9" d="M 349.5,152.5 C 365.086,151.569 380.419,153.069 395.5,157C 417.56,164.474 424.727,179.308 417,201.5C 411.005,215.968 402.839,228.968 392.5,240.5C 377.363,226.691 361.363,214.024 344.5,202.5C 341.663,186.473 338.663,170.473 335.5,154.5C 340.353,154.187 345.02,153.521 349.5,152.5 Z"/></g>
<g><path style="opacity:1" fill="#1cafea" d="M 195.5,158.5 C 206.496,160.332 217.163,163.332 227.5,167.5C 215.007,173.912 202.674,180.579 190.5,187.5C 190.167,187.167 189.833,186.833 189.5,186.5C 191.372,177.137 193.372,167.804 195.5,158.5 Z"/></g>
<g><path style="opacity:1" fill="#19aee9" d="M 312.5,158.5 C 313.5,158.5 314.5,158.5 315.5,158.5C 317.421,167.104 319.087,175.771 320.5,184.5C 320.167,185.167 319.833,185.833 319.5,186.5C 307.469,180.152 295.469,173.818 283.5,167.5C 293.134,164.015 302.801,161.015 312.5,158.5 Z"/></g>
<g><path style="opacity:1" fill="#04acea" d="M 511.5,236.5 C 511.5,250.167 511.5,263.833 511.5,277.5C 499.018,377.805 447.018,449.305 355.5,492C 330.313,502.297 304.313,508.797 277.5,511.5C 263.833,511.5 250.167,511.5 236.5,511.5C 236.631,510.761 236.464,510.094 236,509.5C 186.658,461.659 138.491,413.326 91.5,364.5C 97.7457,368.455 104.412,371.622 111.5,374C 135.063,379.264 158.73,379.764 182.5,375.5C 189.789,401.934 203.122,424.768 222.5,444C 231.875,452.403 242.875,456.57 255.5,456.5C 258.85,456.665 262.183,456.498 265.5,456C 276.294,452.688 285.794,447.188 294,439.5C 309.881,421.416 321.381,400.75 328.5,377.5C 330,377.167 331.5,376.833 333,376.5C 355.343,379.828 377.51,378.994 399.5,374C 431.756,363.662 444.589,341.828 438,308.5C 431.065,288.618 420.565,270.951 406.5,255.5C 420.229,240.721 430.396,223.721 437,204.5C 441.318,189.257 440.151,174.59 433.5,160.5C 433.435,160.062 433.601,159.728 434,159.5C 459.776,185.444 485.61,211.11 511.5,236.5 Z"/></g>
<g><path style="opacity:1" fill="#fdaa23" d="M 91.5,178.5 C 111.187,188.566 115.521,203.233 104.5,222.5C 99.0989,228.534 92.4322,231.867 84.5,232.5C 78.7034,232.93 73.3701,231.597 68.5,228.5C 64.8627,225.694 61.6961,222.361 59,218.5C 51.8378,201.821 56.0045,188.821 71.5,179.5C 78.0555,177.288 84.7221,176.954 91.5,178.5 Z"/></g>
<g><path style="opacity:1" fill="#07acea" d="M 255.5,177.5 C 279.428,187.546 302.261,199.546 324,213.5C 326.12,229.093 326.953,244.759 326.5,260.5C 325.51,266.645 325.177,272.978 325.5,279.5C 311.859,284.819 305.526,294.819 306.5,309.5C 289.658,317.753 272.658,325.753 255.5,333.5C 231.696,323.932 209.029,312.265 187.5,298.5C 186.719,297.271 186.219,295.938 186,294.5C 183.835,267.453 184.001,240.453 186.5,213.5C 208.199,199.149 231.199,187.149 255.5,177.5 Z"/></g>
<g><path style="opacity:1" fill="#9afcfe" d="M 255.5,213.5 C 255.5,241.5 255.5,269.5 255.5,297.5C 228.922,294.921 214.922,280.254 213.5,253.5C 216.775,228.891 230.775,215.558 255.5,213.5 Z"/></g>
<g><path style="opacity:1" fill="#01e7f2" d="M 255.5,213.5 C 284.681,216.846 298.514,233.18 297,262.5C 291.855,284.48 278.021,296.146 255.5,297.5C 255.5,269.5 255.5,241.5 255.5,213.5 Z"/></g>
<g><path style="opacity:1" fill="#1daeea" d="M 164.5,227.5 C 164.501,245.996 164.668,264.663 165,283.5C 153.699,274.698 142.866,265.365 132.5,255.5C 142.89,245.772 153.557,236.438 164.5,227.5 Z"/></g>
<g><path style="opacity:1" fill="#0cace9" d="M 347.5,282.5 C 346.833,282.5 346.5,282.167 346.5,281.5C 346.5,275.833 346.5,270.167 346.5,264.5C 346.168,252.814 346.501,241.148 347.5,229.5C 358.419,237.414 368.752,246.081 378.5,255.5C 368.417,264.925 358.084,273.925 347.5,282.5 Z"/></g>
<g><path style="opacity:1" fill="#10ade9" d="M 68.5,228.5 C 73.3701,231.597 78.7034,232.93 84.5,232.5C 86.3904,232.297 87.8904,232.963 89,234.5C 93.6153,241.45 98.6153,248.116 104,254.5C 104.667,255.167 104.667,255.833 104,256.5C 102.624,257.705 101.458,259.038 100.5,260.5C 89.4249,250.092 78.7582,239.425 68.5,228.5 Z"/></g>
<g><path style="opacity:1" fill="#09acea" d="M 117.5,270.5 C 127.622,278.411 137.622,286.578 147.5,295C 154.333,299.833 161.167,304.667 168,309.5C 169.973,325.339 172.806,341.006 176.5,356.5C 159.515,358.785 142.515,358.952 125.5,357C 113.744,355.373 103.91,350.206 96,341.5C 91.2202,331.973 90.2202,321.973 93,311.5C 98.9417,296.417 107.108,282.75 117.5,270.5 Z"/></g>
<g><path style="opacity:1" fill="#08ace9" d="M 337.5,333.5 C 355.839,328.45 363.173,316.45 359.5,297.5C 363.343,294.497 367.343,291.664 371.5,289C 378.38,282.088 385.713,276.088 393.5,271C 402.374,281.904 409.874,293.737 416,306.5C 425.58,333.93 416.08,350.43 387.5,356C 370.203,359.117 352.87,359.284 335.5,356.5C 336.133,349.202 337.466,342.035 339.5,335C 339.164,333.97 338.497,333.47 337.5,333.5 Z"/></g>
<g><path style="opacity:1" fill="#a8dce1" d="M 326.5,260.5 C 326.177,266.69 326.51,272.69 327.5,278.5C 327.158,279.338 326.492,279.672 325.5,279.5C 325.177,272.978 325.51,266.645 326.5,260.5 Z"/></g>
<g><path style="opacity:1" fill="#a6dae1" d="M 346.5,264.5 C 346.5,270.167 346.5,275.833 346.5,281.5C 345.508,281.672 344.842,281.338 344.5,280.5C 345.167,275.167 345.833,269.833 346.5,264.5 Z"/></g>
<g><path style="opacity:1" fill="#1e2fdd" d="M 327.5,278.5 C 333.335,278.124 339.002,278.79 344.5,280.5C 344.842,281.338 345.508,281.672 346.5,281.5C 346.5,282.167 346.833,282.5 347.5,282.5C 353.157,286.134 357.157,291.134 359.5,297.5C 363.173,316.45 355.839,328.45 337.5,333.5C 331.514,334.005 325.848,333.005 320.5,330.5C 318.537,329.18 316.537,327.846 314.5,326.5C 309.962,321.755 307.295,316.089 306.5,309.5C 305.526,294.819 311.859,284.819 325.5,279.5C 326.492,279.672 327.158,279.338 327.5,278.5 Z"/></g>
<g><path style="opacity:1" fill="#1aaeea" d="M 189.5,324.5 C 189.56,323.957 189.893,323.624 190.5,323.5C 202.674,330.421 215.007,337.088 227.5,343.5C 217.169,347.722 206.503,350.722 195.5,352.5C 193.784,342.986 191.784,333.653 189.5,324.5 Z"/></g>
<g><path style="opacity:1" fill="#16ade9" d="M 314.5,326.5 C 316.537,327.846 318.537,329.18 320.5,330.5C 318.088,337.547 316.421,344.88 315.5,352.5C 304.574,350.435 293.907,347.435 283.5,343.5C 294.106,338.203 304.439,332.537 314.5,326.5 Z"/></g>
<g><path style="opacity:1" fill="#07acea" d="M 255.5,355.5 C 272.672,362.446 290.339,367.779 308.5,371.5C 302.779,393.784 291.779,412.951 275.5,429C 270.264,433.356 264.264,435.856 257.5,436.5C 254.482,436.665 251.482,436.498 248.5,436C 238.996,432.507 231.163,426.674 225,418.5C 214.997,404.36 207.164,389.027 201.5,372.5C 219.626,367.236 237.626,361.569 255.5,355.5 Z"/></g>
</svg>
