<?xml version="1.0" encoding="UTF-8"?>
<!DOCTYPE svg PUBLIC "-//W3C//DTD SVG 1.1//EN" "http://www.w3.org/Graphics/SVG/1.1/DTD/svg11.dtd">
<svg xmlns="http://www.w3.org/2000/svg" version="1.1" width="320px" height="320px" style="shape-rendering:geometricPrecision; text-rendering:geometricPrecision; image-rendering:optimizeQuality; fill-rule:evenodd; clip-rule:evenodd" xmlns:xlink="http://www.w3.org/1999/xlink">
<g><path style="opacity:0.988" fill="#cd669a" d="M 136.5,-0.5 C 151.833,-0.5 167.167,-0.5 182.5,-0.5C 237.007,9.6548 277.507,38.9881 304,87.5C 310.645,103.379 315.811,119.712 319.5,136.5C 319.5,151.833 319.5,167.167 319.5,182.5C 309.345,237.007 280.012,277.507 231.5,304C 215.621,310.645 199.288,315.811 182.5,319.5C 167.167,319.5 151.833,319.5 136.5,319.5C 81.9929,309.345 41.4929,280.012 15,231.5C 8.35529,215.621 3.18862,199.288 -0.5,182.5C -0.5,167.167 -0.5,151.833 -0.5,136.5C 9.6548,81.9929 38.9881,41.4929 87.5,15C 103.379,8.35529 119.712,3.18862 136.5,-0.5 Z"/></g>
<g><path style="opacity:1" fill="#fefcfd" d="M 190.5,38.5 C 202.923,38.0763 215.257,38.9096 227.5,41C 240.403,43.9262 250.57,50.7596 258,61.5C 261.745,70.2692 262.412,79.2692 260,88.5C 252.302,112.867 236.802,130.367 213.5,141C 193.761,148.749 173.428,151.082 152.5,148C 145.605,145.769 139.771,141.936 135,136.5C 133.092,133.794 132.259,130.794 132.5,127.5C 133.552,127.351 134.552,127.517 135.5,128C 142.769,135.705 151.769,139.205 162.5,138.5C 191.395,137.466 215.228,126.133 234,104.5C 241.367,95.4338 244.367,85.1005 243,73.5C 241.6,70.0976 239.433,67.2643 236.5,65C 231.405,62.3919 226.072,60.3919 220.5,59C 202.338,56.8998 184.671,58.8998 167.5,65C 138.367,75.2971 113.201,91.4637 92,113.5C 79.8082,129.333 79.4748,145.333 91,161.5C 104.78,173.628 118.614,185.628 132.5,197.5C 133,197.833 133.5,198.167 134,198.5C 136.368,197.283 138.868,196.449 141.5,196C 151.5,195.333 161.5,195.333 171.5,196C 187.446,199.618 197.946,209.118 203,224.5C 204.636,235.859 200.469,244.359 190.5,250C 188.866,250.494 187.199,250.66 185.5,250.5C 185.281,249.325 185.614,248.325 186.5,247.5C 197.438,240.017 199.272,230.684 192,219.5C 186.436,213.466 179.602,209.633 171.5,208C 161.897,205.27 152.231,204.937 142.5,207C 141.572,207.388 140.905,208.055 140.5,209C 147.264,235.721 139.597,257.054 117.5,273C 104.875,280.713 91.5415,282.379 77.5,278C 68.946,270.328 66.1127,260.828 69,249.5C 72.7781,238.378 79.6114,229.545 89.5,223C 99.3256,215.842 109.659,209.508 120.5,204C 110.444,196.278 100.111,188.945 89.5,182C 78.9572,174.458 70.1239,165.291 63,154.5C 56.5295,143.854 55.8629,132.854 61,121.5C 70.925,102.572 84.7583,87.0716 102.5,75C 129.461,56.8536 158.795,44.6869 190.5,38.5 Z"/></g>
<g><path style="opacity:1" fill="#cd689b" d="M 125.5,213.5 C 126.5,213.5 127.5,213.5 128.5,213.5C 131.55,233.229 124.883,248.729 108.5,260C 87.8148,267.847 82.3148,261.68 92,241.5C 94.8086,237.39 97.9753,233.557 101.5,230C 109.129,223.856 117.129,218.356 125.5,213.5 Z"/></g>
</svg>
