<?xml version="1.0" encoding="UTF-8"?>
<!DOCTYPE svg PUBLIC "-//W3C//DTD SVG 1.1//EN" "http://www.w3.org/Graphics/SVG/1.1/DTD/svg11.dtd">
<svg xmlns="http://www.w3.org/2000/svg" version="1.1" width="2048px" height="2048px" style="shape-rendering:geometricPrecision; text-rendering:geometricPrecision; image-rendering:optimizeQuality; fill-rule:evenodd; clip-rule:evenodd" xmlns:xlink="http://www.w3.org/1999/xlink">
<g><path style="opacity:0.998" fill="#07b6d5" d="M 999.5,462.5 C 1073.08,459.488 1144.74,469.655 1214.5,493C 1278.44,516.777 1335.44,551.443 1385.5,597C 1408.64,619.138 1431.47,641.638 1454,664.5C 1479.93,694.103 1508.1,721.27 1538.5,746C 1596.99,784.706 1661.32,802.04 1731.5,798C 1774.39,793.481 1814.06,779.814 1850.5,757C 1894.45,728.717 1931.62,693.217 1962,650.5C 1959.25,668.155 1954.92,685.489 1949,702.5C 1918.89,791.278 1869.39,867.111 1800.5,930C 1751,972.581 1694,1000.58 1629.5,1014C 1459.08,1052.58 1303.08,1021.25 1161.5,920C 1156.02,915.094 1150.35,910.428 1144.5,906C 1108.5,870.667 1072.5,835.333 1036.5,800C 1010.22,775.712 982.222,753.712 952.5,734C 853.591,672.112 754.591,672.112 655.5,734C 613.689,761.311 579.022,795.811 551.5,837.5C 565.796,748.209 603.629,669.209 665,600.5C 732.668,530.742 814.835,487.909 911.5,472C 940.795,467.051 970.129,463.885 999.5,462.5 Z"/></g>
<g><path style="opacity:0.998" fill="#07b6d5" d="M 537.5,1024.5 C 623.792,1021.16 706.458,1036.66 785.5,1071C 834.191,1094.39 878.525,1124.06 918.5,1160C 940.305,1180.8 961.805,1201.97 983,1223.5C 1010.27,1254.44 1039.77,1282.94 1071.5,1309C 1132.96,1349.2 1200.3,1365.87 1273.5,1359C 1313.47,1353.23 1350.47,1339.57 1384.5,1318C 1427.16,1290.01 1463.33,1255.17 1493,1213.5C 1493.72,1212.55 1494.55,1212.38 1495.5,1213C 1473.66,1303.51 1432.5,1383.68 1372,1453.5C 1329.12,1501.52 1277.62,1537.02 1217.5,1560C 1060.93,1612.73 909.263,1601.39 762.5,1526C 732.78,1509.81 704.78,1491.15 678.5,1470C 642.5,1434.67 606.5,1399.33 570.5,1364C 543.174,1338.33 513.841,1315.33 482.5,1295C 384.963,1234.46 287.296,1234.46 189.5,1295C 146.921,1322.37 111.754,1357.2 84,1399.5C 83.2825,1400.45 82.4491,1400.62 81.5,1400C 98.3029,1308.23 137.803,1228.07 200,1159.5C 267.725,1091.72 349.225,1049.88 444.5,1034C 475.455,1028.87 506.455,1025.7 537.5,1024.5 Z"/></g>
</svg>
