<?xml version="1.0" encoding="UTF-8"?>
<!DOCTYPE svg PUBLIC "-//W3C//DTD SVG 1.1//EN" "http://www.w3.org/Graphics/SVG/1.1/DTD/svg11.dtd">
<svg xmlns="http://www.w3.org/2000/svg" version="1.1" width="344px" height="340px" style="shape-rendering:geometricPrecision; text-rendering:geometricPrecision; image-rendering:optimizeQuality; fill-rule:evenodd; clip-rule:evenodd" xmlns:xlink="http://www.w3.org/1999/xlink">
<g><path style="opacity:0.994" fill="#0073c0" d="M 154.5,-0.5 C 165.833,-0.5 177.167,-0.5 188.5,-0.5C 262.733,10.0365 312.233,50.7032 337,121.5C 339.769,131.85 341.935,142.184 343.5,152.5C 343.5,163.833 343.5,175.167 343.5,186.5C 332.098,260.077 291.098,308.91 220.5,333C 209.836,335.899 199.17,338.066 188.5,339.5C 177.167,339.5 165.833,339.5 154.5,339.5C 80.2669,328.964 30.7669,288.297 6,217.5C 3.2312,207.15 1.06453,196.816 -0.5,186.5C -0.5,175.167 -0.5,163.833 -0.5,152.5C 10.9017,78.9231 51.9017,30.0898 122.5,6C 133.164,3.10098 143.83,0.934317 154.5,-0.5 Z"/></g>
<g><path style="opacity:1" fill="#c9e0f0" d="M 89.5,121.5 C 116.995,120.502 144.662,120.169 172.5,120.5C 172.5,127.5 172.5,134.5 172.5,141.5C 162.5,141.5 152.5,141.5 142.5,141.5C 151.986,140.506 161.652,140.173 171.5,140.5C 171.5,134.167 171.5,127.833 171.5,121.5C 144.167,121.5 116.833,121.5 89.5,121.5 Z"/></g>
<g><path style="opacity:1" fill="#fbfcfd" d="M 89.5,121.5 C 116.833,121.5 144.167,121.5 171.5,121.5C 171.5,127.833 171.5,134.167 171.5,140.5C 161.652,140.173 151.986,140.506 142.5,141.5C 142.5,173.167 142.5,204.833 142.5,236.5C 134.5,236.5 126.5,236.5 118.5,236.5C 118.5,204.833 118.5,173.167 118.5,141.5C 108.833,141.5 99.1667,141.5 89.5,141.5C 89.5,134.833 89.5,128.167 89.5,121.5 Z"/></g>
<g><path style="opacity:1" fill="#f9fbfd" d="M 191.5,235.5 C 189.485,234.076 187.152,233.41 184.5,233.5C 182.106,232.985 179.772,232.319 177.5,231.5C 176.531,223.252 176.198,214.918 176.5,206.5C 186.769,214.486 198.436,217.652 211.5,216C 223.21,210.927 224.543,203.927 215.5,195C 206.339,190.254 197.339,185.254 188.5,180C 174.174,166.871 171.674,151.705 181,134.5C 188.112,126.694 196.945,122.194 207.5,121C 219.436,119.466 230.936,120.966 242,125.5C 242.5,132.826 242.666,140.159 242.5,147.5C 236.377,144.848 230.044,142.681 223.5,141C 218.833,140.333 214.167,140.333 209.5,141C 198.79,146.637 197.79,153.637 206.5,162C 213.833,166 221.167,170 228.5,174C 247.083,185.35 251.583,200.85 242,220.5C 237.262,226.898 231.095,231.398 223.5,234C 212.914,236.517 202.247,237.017 191.5,235.5 Z"/></g>
<g><path style="opacity:1" fill="#1f84c7" d="M 89.5,141.5 C 99.1667,141.5 108.833,141.5 118.5,141.5C 118.5,173.167 118.5,204.833 118.5,236.5C 117.502,205.338 117.168,174.004 117.5,142.5C 107.985,142.827 98.6517,142.494 89.5,141.5 Z"/></g>
<g><path style="opacity:1" fill="#4b9bd2" d="M 142.5,141.5 C 152.5,141.5 162.5,141.5 172.5,141.5C 163.014,142.494 153.348,142.827 143.5,142.5C 143.832,174.004 143.498,205.338 142.5,236.5C 142.5,204.833 142.5,173.167 142.5,141.5 Z"/></g>
<g><path style="opacity:1" fill="#8cc0e1" d="M 176.5,206.5 C 176.198,214.918 176.531,223.252 177.5,231.5C 176.175,227.724 175.509,223.557 175.5,219C 175.501,214.653 175.834,210.486 176.5,206.5 Z"/></g>
<g><path style="opacity:1" fill="#89bae0" d="M 184.5,233.5 C 187.152,233.41 189.485,234.076 191.5,235.5C 188.848,235.59 186.515,234.924 184.5,233.5 Z"/></g>
</svg>
