<?xml version="1.0" encoding="UTF-8"?>
<!DOCTYPE svg PUBLIC "-//W3C//DTD SVG 1.1//EN" "http://www.w3.org/Graphics/SVG/1.1/DTD/svg11.dtd">
<svg xmlns="http://www.w3.org/2000/svg" version="1.1" width="512px" height="512px" style="shape-rendering:geometricPrecision; text-rendering:geometricPrecision; image-rendering:optimizeQuality; fill-rule:evenodd; clip-rule:evenodd" xmlns:xlink="http://www.w3.org/1999/xlink">
<g><path style="opacity:0.996" fill="#000000" d="M 233.5,-0.5 C 248.167,-0.5 262.833,-0.5 277.5,-0.5C 377.769,12.0418 449.269,64.0418 492,155.5C 502.296,180.684 508.796,206.684 511.5,233.5C 511.5,248.167 511.5,262.833 511.5,277.5C 498.958,377.769 446.958,449.269 355.5,492C 330.316,502.296 304.316,508.796 277.5,511.5C 262.833,511.5 248.167,511.5 233.5,511.5C 133.231,498.958 61.7312,446.958 19,355.5C 8.70393,330.316 2.20393,304.316 -0.5,277.5C -0.5,262.833 -0.5,248.167 -0.5,233.5C 12.0418,133.231 64.0418,61.7312 155.5,19C 180.684,8.70393 206.684,2.20393 233.5,-0.5 Z"/></g>
<g><path style="opacity:1" fill="#fdfdfd" d="M 252.5,112.5 C 254.074,112.937 255.241,113.937 256,115.5C 263.933,130.424 272.267,145.09 281,159.5C 281.667,160.833 281.667,162.167 281,163.5C 243.247,228.67 205.747,294.004 168.5,359.5C 149.833,360.833 131.167,360.833 112.5,359.5C 159.444,277.274 206.11,194.941 252.5,112.5 Z"/></g>
<g><path style="opacity:1" fill="#fdfdfd" d="M 394.5,359.5 C 343.664,359.832 292.997,359.499 242.5,358.5C 250.889,342.727 259.555,327.06 268.5,311.5C 282.154,310.667 295.821,310.167 309.5,310C 302.826,298.317 296.16,286.651 289.5,275C 298.699,258.102 308.033,241.269 317.5,224.5C 343.431,269.365 369.098,314.365 394.5,359.5 Z"/></g>
<g><path style="opacity:1" fill="#bebebe" d="M 242.5,358.5 C 292.997,359.499 343.664,359.832 394.5,359.5C 343.665,360.831 292.665,360.831 241.5,359.5C 241.624,358.893 241.957,358.56 242.5,358.5 Z"/></g>
</svg>
