<?xml version="1.0" encoding="UTF-8"?>
<!DOCTYPE svg PUBLIC "-//W3C//DTD SVG 1.1//EN" "http://www.w3.org/Graphics/SVG/1.1/DTD/svg11.dtd">
<svg xmlns="http://www.w3.org/2000/svg" version="1.1" width="2367px" height="2051px" style="shape-rendering:geometricPrecision; text-rendering:geometricPrecision; image-rendering:optimizeQuality; fill-rule:evenodd; clip-rule:evenodd" xmlns:xlink="http://www.w3.org/1999/xlink">
<g><path style="opacity:0.999" fill="#41b783" d="M -0.5,-0.5 C 157.167,-0.5 314.833,-0.5 472.5,-0.5C 472.5,0.166667 472.833,0.5 473.5,0.5C 709.483,410.466 945.983,820.133 1183,1229.5C 1419.78,819.608 1656.28,409.608 1892.5,-0.5C 2050.5,-0.5 2208.5,-0.5 2366.5,-0.5C 2366.5,0.166667 2366.5,0.833333 2366.5,1.5C 1971.93,684.301 1577.6,1367.3 1183.5,2050.5C 1183.17,2050.5 1182.83,2050.5 1182.5,2050.5C 788.657,1367.47 394.323,684.804 -0.5,2.5C -0.5,1.5 -0.5,0.5 -0.5,-0.5 Z"/></g>
<g><path style="opacity:0.78" fill="#386d6a" d="M 472.5,-0.5 C 618.5,-0.5 764.5,-0.5 910.5,-0.5C 910.5,0.166667 910.5,0.833333 910.5,1.5C 764.903,0.50169 619.237,0.168357 473.5,0.5C 472.833,0.5 472.5,0.166667 472.5,-0.5 Z"/></g>
<g><path style="opacity:1" fill="#34495e" d="M 1455.5,-0.5 C 1601.17,-0.5 1746.83,-0.5 1892.5,-0.5C 1656.28,409.608 1419.78,819.608 1183,1229.5C 945.983,820.133 709.483,410.466 473.5,0.5C 619.237,0.168357 764.903,0.50169 910.5,1.5C 1001.81,158.11 1092.65,315.11 1183,472.5C 1273.85,314.806 1364.68,157.139 1455.5,-0.5 Z"/></g>
</svg>
